<svg width="100" height="28" viewBox="0 0 100 28" fill="none" xmlns="http://www.w3.org/2000/svg">
<path d="M34.2887 0.15625L34.4565 0.308994V1.24264L34.3074 1.37629C32.9426 1.41448 32.0961 1.48512 31.768 1.58632C31.4398 1.68751 31.2068 1.85553 31.0707 2.09037C30.9346 2.32522 30.8563 2.78536 30.8376 3.4708C30.819 4.15624 30.7854 6.09418 30.7351 9.28081V18.0636C30.7351 19.3333 30.7537 20.7691 30.791 22.3691C30.8283 23.9691 30.9047 24.9008 31.0241 25.1605C31.1415 25.4201 31.3559 25.6111 31.6654 25.7314C31.9749 25.8516 32.8568 25.9318 34.3074 25.97L34.4565 26.1037V27.0373L34.2887 27.1901C32.2676 27.0755 30.5057 27.0182 29.0049 27.0182C27.9869 27.0182 26.2567 27.0755 23.8142 27.1901L23.6464 27.0373V26.1228L23.7956 25.97C25.1604 25.9318 26.0068 25.8631 26.335 25.76C26.6631 25.6588 26.8962 25.4908 27.0323 25.2559C27.1684 25.0211 27.2485 24.5552 27.2746 23.8564C27.2989 23.1576 27.3306 21.2273 27.3679 18.0655V4.08178L20.9486 17.8364C19.3358 21.2789 17.9281 24.517 16.7256 27.5528H16.0003C15.3049 25.9146 14.7343 24.6068 14.2887 23.6273L5.3953 4.70994V18.0273C5.3953 19.2722 5.41021 20.7042 5.44191 22.3232C5.4736 23.9423 5.55005 24.8798 5.67496 25.1337C5.79802 25.3877 6.01616 25.5786 6.32566 25.7046C6.63516 25.8325 7.51704 25.907 8.96759 25.9337L9.11674 26.0865V27.001L8.94894 27.1729L7.75756 27.1156C6.52888 27.0526 5.47547 27.0201 4.59545 27.0201C4.19832 27.0201 2.71608 27.0698 0.148729 27.1729L-0.000427246 27.0201V26.1056L0.148729 25.9337C1.51351 25.9089 2.35624 25.8459 2.67879 25.7428C3.00134 25.6416 3.2344 25.4698 3.3761 25.2292C3.51779 24.9886 3.59983 24.538 3.61847 23.8774C3.63712 23.2168 3.66509 21.2674 3.70237 18.0292V9.30372C3.70237 8.14859 3.68746 6.74143 3.65576 5.08416C3.62407 3.42688 3.54949 2.46841 3.43203 2.20684C3.31457 1.94718 3.10016 1.75243 2.79066 1.62641C2.48116 1.5004 1.59927 1.42403 0.148729 1.3973L-0.000427246 1.24455V0.328087L0.167373 0.15625C1.02316 0.219257 2.17725 0.251715 3.6278 0.251715C4.99258 0.251715 6.1821 0.221166 7.20009 0.15625C8.24232 2.62116 9.2398 4.84932 10.1963 6.84454L17.2476 21.6664L23.611 8.08176C25.3356 4.41209 26.4953 1.76961 27.0901 0.15625C28.2814 0.219257 29.4523 0.251715 30.6064 0.251715C31.6468 0.251715 32.8736 0.221166 34.2887 0.15625Z" fill="#333333"/>
<path d="M36.6883 0.23326L36.8375 0.0996094C41.0922 0.175981 43.8143 0.214167 45.0057 0.214167C49.0739 0.214167 52.6947 0.175981 55.8698 0.0996094L55.963 0.23326C55.6535 1.4533 55.4242 3.36452 55.2751 5.9688L55.1632 6.12155H54.2515L54.0837 5.9688C54.0967 5.85425 54.1023 5.75305 54.1023 5.66332C54.1023 4.58456 54.0222 3.55545 53.8599 2.57597C53.0787 2.22084 51.9955 1.98791 50.6139 1.88099C49.2305 1.77407 48.192 1.7187 47.4984 1.7187C46.5177 1.7187 45.2667 1.78934 43.7397 1.92872L43.6651 4.97597L43.6092 8.46235L43.5532 12.3306C44.8919 12.407 46.1262 12.4452 47.256 12.4452C48.3971 12.4452 49.3517 12.407 50.1217 12.3306C50.8899 12.2542 51.3411 12.1759 51.4697 12.0919C51.6002 12.0098 51.699 11.8514 51.768 11.6165C51.8351 11.3817 51.8948 10.9654 51.9452 10.3678L52.0197 9.18598L52.1689 9.03323H53.0247L53.1738 9.18598C53.1496 10.5702 53.1179 11.9621 53.0806 13.3578L53.1738 17.6442L53.0247 17.7969H52.1689L52.0197 17.6442L51.8892 16.5005C51.7773 15.6108 51.6972 15.0819 51.6468 14.9101C51.5965 14.7382 51.4828 14.5893 51.3019 14.4633C51.1211 14.3373 50.6605 14.2342 49.9166 14.1578C49.1727 14.0814 48.1491 14.0432 46.8477 14.0432C46.1281 14.0432 45.0299 14.0757 43.5551 14.1387C43.4936 15.206 43.4619 16.9836 43.4619 19.4733C43.4619 22.1406 43.4936 24.1034 43.5551 25.3597H46.9782C49.9931 25.3597 51.878 25.3215 52.6331 25.2451C53.3901 25.1687 54.1098 24.9855 54.7922 24.6933C54.904 24.4012 55.0868 23.7253 55.3403 22.6637C55.5939 21.6041 55.7412 20.9396 55.7785 20.6723L55.9649 20.5387H56.858L57.0071 20.6723C56.8953 21.2184 56.7871 22.1711 56.6809 23.5306C56.5746 24.89 56.5224 26.0528 56.5224 27.0169L56.3919 27.1697C54.0221 27.0933 50.9216 27.0551 47.0901 27.0551L42.03 27.0169C40.8517 27.0169 39.623 27.0666 38.3458 27.1697L38.1967 27.0169V26.3888L38.3458 26.1979C39.0767 25.816 39.4962 25.5792 39.6025 25.4838C39.7069 25.3883 39.7945 24.2771 39.8635 22.1501C39.9306 20.0232 39.966 18.4003 39.966 17.2833V10.2934L39.9474 5.9688C39.9474 5.02943 39.9343 4.2638 39.9101 3.67382C39.8859 3.08385 39.8411 2.66189 39.7796 2.40605C39.7181 2.15211 39.6453 1.97454 39.5652 1.87335C39.485 1.77216 39.3545 1.68624 39.1736 1.6156C38.9928 1.54495 38.687 1.48576 38.2526 1.43421L36.8393 1.31965L36.6902 1.186V0.23326H36.6883Z" fill="#333333"/>
<path d="M59.1624 0.232384L59.3115 0.0987329C61.4575 0.199926 62.9211 0.251477 63.7023 0.251477L72.4093 0.0605469C74.889 0.0605469 76.9231 0.29921 78.5117 0.774626C80.1002 1.25004 81.5097 2.07677 82.744 3.25099C83.9782 4.42521 84.9142 5.79227 85.5537 7.34644C86.1913 8.90252 86.512 10.5636 86.512 12.3278C86.512 14.0424 86.2212 15.7378 85.6376 17.4142C85.054 19.0906 84.2262 20.5932 83.1541 21.9201C82.0821 23.2471 80.859 24.3182 79.4886 25.1297C78.1183 25.943 76.7442 26.4853 75.3682 26.7583C73.9922 27.0313 72.5846 27.1669 71.1452 27.1669C70.1776 27.1669 68.3541 27.1287 65.6749 27.0523C64.7949 27.0275 64.2113 27.0142 63.9261 27.0142C63.0703 27.0142 62.0336 27.0638 60.8199 27.1669L60.6707 27.0142V26.386L60.8199 26.1951C61.5507 25.8132 61.9702 25.5765 62.0765 25.481C62.1809 25.3855 62.2686 24.2743 62.3375 22.1473C62.4047 20.0204 62.4401 18.3975 62.4401 17.2805V10.2925L62.4214 5.96793C62.4214 5.02855 62.4084 4.26292 62.3842 3.67295C62.3599 3.08297 62.3152 2.66102 62.2536 2.40517C62.1921 2.15123 62.1194 1.97367 62.0392 1.87247C61.9591 1.77128 61.8285 1.68536 61.6477 1.61472C61.4687 1.54407 61.1611 1.48489 60.7267 1.43333L59.3134 1.31878L59.1643 1.18513V0.232384H59.1624ZM66.0459 25.0953C67.3119 25.3492 68.768 25.4772 70.4181 25.4772C73.308 25.4772 75.618 24.9827 77.3482 23.9917C79.0785 23.0008 80.3705 21.5345 81.2263 19.5908C82.0821 17.6471 82.5109 15.4572 82.5109 13.019C82.5109 9.42376 81.575 6.63618 79.7012 4.65433C77.8293 2.67247 74.876 1.68154 70.845 1.68154C69.1838 1.68154 67.5822 1.80947 66.0459 2.0634C65.9471 4.14645 65.8968 6.4968 65.8968 9.11255V15.0944L65.9341 20.6963C65.9341 21.7865 65.9714 23.2547 66.0459 25.0953Z" fill="#333333"/>
<path d="M89.1894 0.0996094L91.5144 0.175981C93.0395 0.227532 94.0389 0.252353 94.5106 0.252353C94.932 0.252353 96.7125 0.202712 99.8504 0.0996094L99.9996 0.23326V1.186L99.8504 1.31965C98.9946 1.34447 98.3346 1.38266 97.8685 1.43421C97.4024 1.48576 97.0649 1.58123 96.8542 1.7206C96.6435 1.85998 96.5037 2.18647 96.4347 2.70198C96.3657 3.21559 96.3322 3.93157 96.3322 4.84613L96.2949 9.22797V18.0489L96.3135 21.7644C96.3266 23.2002 96.362 24.1262 96.4254 24.5463C96.4869 24.9663 96.5764 25.2451 96.6957 25.3845C96.8132 25.5238 97.0407 25.6422 97.3744 25.7377C97.71 25.8331 98.5341 25.9057 99.8486 25.9573L99.9977 26.0718V27.0246L99.8486 27.1773C99.787 27.1773 98.6944 27.1391 96.5746 27.0627C95.6945 27.0379 95.0047 27.0246 94.5087 27.0246C94.1246 27.0246 92.3497 27.0742 89.1876 27.1773L89.0384 27.0246V26.0718L89.1876 25.9573C90.3417 25.9076 91.1098 25.8427 91.4939 25.7663C91.878 25.69 92.1353 25.5926 92.2658 25.4704C92.3963 25.3501 92.5007 25.0923 92.5827 24.699C92.6629 24.3057 92.7095 23.4293 92.7226 22.0699L92.7412 18.0508V9.22988L92.7039 5.51438C92.6909 4.06713 92.6573 3.13349 92.6014 2.71344C92.5454 2.29339 92.4578 2.01464 92.3404 1.87526C92.2229 1.73588 91.9954 1.62132 91.6617 1.53158C91.3261 1.44376 90.502 1.37311 89.1876 1.32156L89.0384 1.18791V0.23326L89.1894 0.0996094Z" fill="#333333"/>
</svg>
