<svg width="20" height="20" viewBox="0 0 20 20" fill="none" xmlns="http://www.w3.org/2000/svg">
<path d="M0.000110945 7.48668C-0.00264513 7.65559 0.046006 7.82135 0.139614 7.96199C0.233221 8.10262 0.367364 8.21148 0.524255 8.27413L8.52475 11.4747L11.7254 19.4759C11.7873 19.6306 11.8941 19.7633 12.0321 19.8567C12.1701 19.9502 12.3329 20.0001 12.4996 20H12.5129C12.6817 19.9973 12.8457 19.9435 12.9832 19.8456C13.1207 19.7477 13.2252 19.6103 13.2829 19.4517L19.9493 1.11961C20.0038 0.970477 20.0146 0.808854 19.9804 0.653777C19.9462 0.4987 19.8684 0.356627 19.7562 0.244291C19.6439 0.131955 19.5019 0.0540335 19.3468 0.0197035C19.1918 -0.0146265 19.0302 -0.00393511 18.881 0.0505182L0.548421 6.71673C0.389733 6.77459 0.252348 6.87926 0.15444 7.01689C0.0565329 7.15452 0.00271682 7.31863 0.000110945 7.48751V7.48668Z" fill="#0070FB"/>
</svg>
