<svg width="20" height="20" viewBox="0 0 20 20" fill="none" xmlns="http://www.w3.org/2000/svg">
<path d="M19.0439 0H11.3947C10.8695 0 10.1339 0.304691 9.76289 0.675675L0.279212 10.1593C0.100391 10.339 0 10.5822 0 10.8357C0 11.0891 0.100391 11.3323 0.279212 11.512L8.48803 19.7208C8.66769 19.8996 8.91085 20 9.16434 20C9.41782 20 9.66099 19.8996 9.84065 19.7208L19.3243 10.2371C19.6966 9.86485 20 9.13054 20 8.6053V0.956144C19.999 0.702869 19.8979 0.460255 19.7188 0.281161C19.5397 0.102067 19.2971 0.00100707 19.0439 0V0ZM14.2631 7.64915C14.0119 7.64907 13.7632 7.59951 13.5311 7.50329C13.2991 7.40708 13.0883 7.26611 12.9107 7.08842C12.7331 6.91073 12.5923 6.6998 12.4962 6.46768C12.4002 6.23556 12.3508 5.9868 12.3508 5.73559C12.3509 5.48438 12.4005 5.23565 12.4967 5.00359C12.5929 4.77154 12.7339 4.56071 12.9116 4.38313C13.0893 4.20556 13.3002 4.06473 13.5323 3.96867C13.7644 3.87261 14.0132 3.82322 14.2644 3.8233C14.7718 3.82347 15.2582 4.02517 15.6169 4.38403C15.9755 4.7429 16.1769 5.22952 16.1767 5.73686C16.1765 6.2442 15.9748 6.7307 15.616 7.08932C15.2571 7.44794 14.7705 7.64932 14.2631 7.64915Z" fill="#0070FB"/>
</svg>
